<?xml version="1.0" encoding="iso-8859-1"?>
<!-- Generator: Adobe Illustrator 19.0.0, SVG Export Plug-In . SVG Version: 6.00 Build 0)  -->
<svg version="1.1" id="Layer_1" xmlns="http://www.w3.org/2000/svg" xmlns:xlink="http://www.w3.org/1999/xlink" x="0px" y="0px"
	 viewBox="0 0 473.935 473.935" style="enable-background:new 0 0 473.935 473.935;" xml:space="preserve">
<circle style="fill:#EDBF00;" cx="236.967" cy="236.967" r="236.967"/>
<path style="fill:#505251;" d="M237.308,145.915c72.965,0,132.197,86.076,133.241,176.654h17.972
	c-1.044-102.888-68.325-198.985-151.213-198.985c-82.881,0-150.162,96.097-151.206,198.985h17.972
	C105.118,231.991,164.351,145.915,237.308,145.915z"/>
<g>
	<path style="fill:#E84849;" d="M237.308,123.588c78.042,0,142.225,85.189,150.338,181.016h0.876
		C387.477,201.72,353.094,99.487,238.696,99.487c-110.592,0-151.55,102.233-152.594,205.117h0.876
		C95.09,208.773,159.273,123.588,237.308,123.588z"/>
	<path style="fill:#E84849;" d="M165.93,302.022c7.237,34.686,11.147,54.81-19.865,68.879
		c-30.279,13.747-59.794-14.907-67.038-49.586c-7.237-34.69,8.812-68.157,40.83-76.003
		C151.883,237.488,158.689,267.34,165.93,302.022z"/>
</g>
<path style="fill:#404040;" d="M165.93,302.022c7.237,34.686,11.248,54.784-7.6,65.882
	c-18.417,10.836-46.181-120.695-26.215-125.586C152.089,237.428,158.689,267.34,165.93,302.022z"/>
<path style="fill:#30302F;" d="M162.203,302.307c4.853,23.263,7.551,36.748-5.093,44.194c-12.359,7.27-30.978-80.961-17.583-84.246
	C152.919,258.98,157.35,279.048,162.203,302.307z"/>
<path style="fill:#E84849;" d="M307.987,302.022c-7.237,34.686-11.147,54.81,19.865,68.879
	c30.271,13.747,59.794-14.907,67.038-49.586c7.237-34.69-8.812-68.157-40.838-76.003
	C322.033,237.488,315.227,267.34,307.987,302.022z"/>
<path style="fill:#404040;" d="M307.987,302.022c-7.237,34.686-11.248,54.784,7.6,65.882
	c18.417,10.836,46.181-120.695,26.207-125.586C321.82,237.428,315.227,267.34,307.987,302.022z"/>
<path style="fill:#30302F;" d="M311.167,302.307c-4.853,23.263-7.551,36.748,5.093,44.194c12.352,7.27,30.978-80.961,17.583-84.246
	C320.447,258.98,316.016,279.048,311.167,302.307z"/>
<g>
</g>
<g>
</g>
<g>
</g>
<g>
</g>
<g>
</g>
<g>
</g>
<g>
</g>
<g>
</g>
<g>
</g>
<g>
</g>
<g>
</g>
<g>
</g>
<g>
</g>
<g>
</g>
<g>
</g>
</svg>
